<svg width="25" height="24" viewBox="0 0 25 24" fill="none" xmlns="http://www.w3.org/2000/svg">
<g clip-path="url(#clip0_14_12)">
<path fill-rule="evenodd" clip-rule="evenodd" d="M13.3839 1.11615C12.8957 0.627992 12.1043 0.627992 11.6161 1.11615C11.128 1.6043 11.128 2.39576 11.6161 2.88391L19.4822 10.75H2.5C1.80964 10.75 1.25 11.3097 1.25 12C1.25 12.6904 1.80964 13.25 2.5 13.25H19.4822L11.6161 21.1161C11.128 21.6043 11.128 22.3958 11.6161 22.8839C12.1043 23.3721 12.8957 23.3721 13.3839 22.8839L23.3839 12.8839C23.625 12.6428 23.747 12.3276 23.7499 12.0116M23.6552 11.5216C23.5942 11.3741 23.5037 11.236 23.3839 11.1161L13.3839 1.11615M23.6552 11.5216C23.7149 11.6656 23.7485 11.8232 23.7499 11.9885L23.6552 11.5216Z" fill="white"/>
</g>
<defs>
<clipPath id="clip0_14_12">
<rect width="24" height="24" fill="white" transform="translate(0.5 3.05176e-05)"/>
</clipPath>
</defs>
</svg>
